<?xml version="1.0" standalone="no"?>
<!DOCTYPE svg PUBLIC "-//W3C//DTD SVG 20010904//EN"
 "http://www.w3.org/TR/2001/REC-SVG-20010904/DTD/svg10.dtd">
<svg version="1.0" xmlns="http://www.w3.org/2000/svg"
 width="512.000000pt" height="512.000000pt" viewBox="0 0 512.000000 512.000000"
 preserveAspectRatio="xMidYMid meet">

<g transform="translate(0.000000,512.000000) scale(0.100000,-0.100000)"
fill="#000000" stroke="none">
<path d="M601 4679 c-268 -52 -479 -240 -570 -507 l-26 -77 0 -1010 0 -1010
23 -75 c77 -245 248 -417 497 -501 l70 -24 1631 -3 1630 -2 13 -37 c8 -20 35
-57 60 -83 67 -67 113 -80 285 -80 127 0 146 3 191 24 62 28 130 101 146 155
11 37 16 42 71 60 196 66 378 243 450 437 49 131 49 153 46 1179 -4 1075 1
1002 -78 1160 -88 176 -240 306 -435 373 l-80 27 -788 3 -788 3 -29 -30 c-39
-39 -41 -97 -6 -138 l24 -28 779 -5 c608 -5 787 -9 818 -19 133 -44 261 -150
323 -267 63 -121 62 -94 62 -1124 0 -1030 1 -1003 -62 -1124 -40 -76 -147
-185 -215 -219 l-52 -27 5 33 c25 173 115 956 115 1005 0 119 -77 230 -189
272 -53 20 -72 21 -331 18 -268 -3 -277 -4 -321 -27 -92 -48 -156 -136 -167
-229 -4 -38 99 -954 122 -1084 l5 -28 -1578 0 c-1733 0 -1637 -3 -1764 61 -82
41 -186 145 -227 227 -62 123 -61 95 -61 1122 0 1030 -1 1003 62 1124 41 78
146 183 224 224 119 62 115 62 916 62 542 0 734 3 753 12 29 13 55 55 55 88 0
33 -26 75 -55 88 -31 14 -1482 15 -1554 1z m3878 -1865 c26 -22 31 -33 31 -72
0 -26 -32 -310 -70 -632 -57 -471 -74 -590 -89 -610 -17 -24 -23 -25 -135 -28
-67 -1 -124 2 -136 8 -10 6 -24 27 -30 48 -10 36 -150 1185 -150 1230 0 13 13
37 29 53 l29 29 245 0 245 0 31 -26z"/>
<path d="M2488 4661 c-85 -76 9 -209 110 -157 37 19 52 44 52 86 0 42 -15 67
-50 85 -43 22 -76 18 -112 -14z"/>
<path d="M573 3970 c-12 -5 -26 -18 -32 -29 -7 -13 -11 -140 -11 -364 0 -386
-1 -382 71 -393 29 -5 41 -1 65 19 l29 25 0 352 0 352 -28 24 c-29 25 -56 29
-94 14z"/>
<path d="M999 3952 c-30 -27 -32 -33 -90 -352 -34 -185 -57 -337 -53 -352 11
-53 84 -76 131 -43 26 18 34 46 64 223 12 73 26 129 29 125 4 -5 26 -73 49
-153 49 -171 56 -187 93 -206 41 -21 74 -17 107 14 25 22 37 52 72 177 22 83
44 156 49 164 4 8 20 -56 38 -149 36 -185 49 -210 112 -210 47 0 80 33 80 81
0 19 -27 174 -60 344 -57 300 -60 311 -90 338 -34 30 -67 34 -110 12 -33 -17
-42 -40 -105 -259 -24 -87 -46 -160 -48 -162 -2 -2 -25 72 -52 164 -63 219
-72 240 -106 257 -42 22 -75 18 -110 -13z"/>
<path d="M1850 3952 l-30 -30 0 -336 c0 -354 2 -375 47 -395 39 -18 63 -13 94
18 28 29 29 32 29 134 l0 104 78 7 c130 12 204 57 248 151 17 36 24 67 23 110
0 108 -42 182 -131 231 -50 27 -62 29 -190 32 l-137 4 -31 -30z m289 -168 c24
-20 31 -34 31 -63 0 -67 -48 -101 -142 -101 l-38 0 0 95 0 95 59 0 c49 0 65
-4 90 -26z"/>
<path d="M2777 3969 c-186 -44 -319 -224 -304 -414 15 -192 142 -333 331 -366
220 -38 418 106 456 332 46 272 -212 512 -483 448z m209 -194 c82 -48 127
-152 105 -243 -36 -143 -179 -218 -309 -162 -114 49 -165 161 -131 285 14 52
92 128 145 143 60 17 138 7 190 -23z"/>
<path d="M3449 3951 l-29 -29 0 -342 0 -342 29 -29 c32 -31 55 -36 95 -18 34
16 39 31 46 138 l5 93 103 -116 c61 -69 112 -118 127 -122 54 -13 105 31 105
90 0 15 -31 58 -86 122 l-86 98 35 17 c50 26 112 101 127 154 28 100 -13 212
-98 266 -65 41 -101 49 -230 49 -112 0 -114 0 -143 -29z m270 -156 c48 -25 56
-78 16 -115 -19 -18 -40 -25 -85 -28 l-60 -4 0 81 0 81 50 0 c28 0 64 -7 79
-15z"/>
<path d="M4169 3637 c-46 -35 -50 -88 -9 -129 l30 -30 136 4 c129 3 137 4 155
27 27 33 25 86 -6 116 -23 24 -29 25 -157 25 -89 -1 -138 -5 -149 -13z"/>
<path d="M875 2827 c-21 -17 -27 -32 -27 -62 0 -59 35 -85 113 -85 l59 0 0
-289 c0 -324 1 -326 71 -337 29 -5 41 -1 65 19 l29 25 3 291 3 291 60 0 c50 0
64 4 84 25 40 39 28 111 -22 134 -15 7 -97 11 -218 11 -188 0 -195 -1 -220
-23z"/>
<path d="M1653 2840 c-12 -5 -29 -19 -37 -32 -19 -30 -256 -650 -256 -671 0
-46 42 -87 89 -87 32 0 69 39 89 93 l20 52 134 3 135 3 22 -60 c24 -67 36 -80
83 -87 41 -7 83 22 91 63 4 20 -30 121 -121 362 -113 301 -129 335 -156 352
-33 20 -59 23 -93 9z m75 -382 c17 -42 27 -79 24 -82 -8 -9 -122 -7 -122 2 0
6 9 30 49 136 7 16 13 27 16 25 2 -3 17 -39 33 -81z"/>
<path d="M2199 2821 l-29 -29 0 -342 0 -342 29 -29 c16 -16 39 -29 50 -29 29
0 68 20 78 39 4 9 10 102 13 206 l5 190 134 -195 c74 -107 143 -203 155 -212
34 -28 83 -23 117 12 l30 29 -3 342 -3 341 -29 25 c-24 20 -36 24 -65 19 -64
-10 -65 -15 -71 -238 l-5 -200 -140 202 c-77 111 -151 211 -164 221 -34 27
-68 24 -102 -10z"/>
<path d="M2965 2838 c-52 -28 -62 -92 -20 -133 20 -21 34 -25 85 -25 l60 0 0
-286 0 -286 29 -29 c31 -31 55 -36 94 -18 44 20 47 43 47 339 l0 280 60 0 c75
0 110 27 110 85 0 25 -8 44 -25 60 -24 25 -25 25 -222 25 -124 0 -205 -5 -218
-12z"/>
<path d="M4012 1044 c-57 -28 -96 -69 -123 -129 -27 -58 -27 -273 0 -330 25
-54 76 -103 136 -131 44 -21 65 -24 175 -24 110 0 131 3 175 24 60 28 111 77
136 131 15 32 19 65 19 166 0 115 -2 129 -26 177 -28 57 -69 96 -129 123 -32
15 -66 19 -176 19 -125 0 -139 -2 -187 -26z m302 -190 c12 -12 16 -37 16 -101
0 -118 -5 -123 -128 -123 -127 0 -132 4 -132 121 0 117 3 119 130 119 76 0
102 -4 114 -16z"/>
</g>
</svg>
